<svg xmlns="http://www.w3.org/2000/svg" width="133" height="35" fill="none" viewBox="0 0 133 35">
  <path fill="#47A2DF" d="M24.465 2.265h-3.37c-1.04 0-1.883.844-1.883 1.886v3.376c0 1.041.843 1.885 1.883 1.885h3.37c1.04 0 1.883-.844 1.883-1.885V4.15a1.884 1.884 0 0 0-1.883-1.886Z"/>
  <path fill="#47A2DF" d="M11.267 9.614h2.96a5.42 5.42 0 0 1 3.304 1.37l.111.124a5.376 5.376 0 0 1 1.369 3.31v2.952a1.94 1.94 0 0 0 1.936 1.939h3.465a1.934 1.934 0 0 0 1.936-1.94V13.9a1.94 1.94 0 0 0-1.936-1.939h-2.947a5.36 5.36 0 0 1-3.305-1.37l-.123-.112a5.413 5.413 0 0 1-1.369-3.31V4.204a1.94 1.94 0 0 0-1.936-1.939h-3.465a1.934 1.934 0 0 0-1.936 1.94v3.47a1.94 1.94 0 0 0 1.936 1.939Z"/>
  <path fill="#47A2DF" d="M24.966 21.765h-2.931a5.258 5.258 0 0 1-3.273-1.436l-.33-.337a5.494 5.494 0 0 1-1.356-3.346V13.65a1.994 1.994 0 0 0-.565-1.382 1.909 1.909 0 0 0-1.353-.578h-2.931a5.215 5.215 0 0 1-3.274-1.348l-.33-.337a5.493 5.493 0 0 1-1.355-3.346V3.675c0-.52-.202-1.018-.562-1.386a1.897 1.897 0 0 0-1.356-.574H1.918c-.509 0-.997.207-1.356.574C.202 2.657 0 3.156 0 3.675v3.508c0 .52.202 1.019.562 1.386.36.368.847.574 1.356.574h2.919a5.254 5.254 0 0 1 3.322 1.399l.33.337a5.532 5.532 0 0 1 1.356 3.345v2.997c.003.518.206 1.015.565 1.382a1.91 1.91 0 0 0 1.353.577h2.931a5.3 5.3 0 0 1 3.237 1.386l.33.337a5.532 5.532 0 0 1 1.356 3.346v2.996c.003.519.206 1.016.565 1.383a1.91 1.91 0 0 0 1.352.577h3.445a1.91 1.91 0 0 0 1.352-.577 1.99 1.99 0 0 0 .565-1.383v-3.52a1.994 1.994 0 0 0-.57-1.387 1.909 1.909 0 0 0-1.36-.573Zm-19.309-.257h-3.63c-1.12 0-2.027.844-2.027 1.886v3.375c0 1.042.908 1.886 2.028 1.886h3.629c1.12 0 2.028-.844 2.028-1.886v-3.375c0-1.042-.908-1.886-2.028-1.886Z"/>
  <path fill="#47A2DF" d="M15.08 21.307h-2.947a5.36 5.36 0 0 1-3.304-1.371l-.124-.111a5.414 5.414 0 0 1-1.368-3.335v-2.964a1.94 1.94 0 0 0-1.875-1.914H1.936A1.934 1.934 0 0 0 0 13.55v3.47a1.94 1.94 0 0 0 1.936 1.94h2.96A5.42 5.42 0 0 1 8.2 20.33l.11.124a5.377 5.377 0 0 1 1.37 3.31v2.951a1.942 1.942 0 0 0 1.203 1.795c.236.097.49.146.745.144h3.452a1.934 1.934 0 0 0 1.936-1.939v-3.47a1.941 1.941 0 0 0-1.936-1.94Zm33.465 5.149h-3.227v-8.544h-7.74v8.544h-3.26V6.532l2.865-2.87h11.362v22.794ZM47.36 6.532h-9.782v10.985l2.47-2.475h5.27V8.577l2.042-2.045Zm13.373 19.924h-3.228l-2.832-2.87V3.233L57.933 0v23.586h2.8v2.87ZM76.09 9.336l-2.832 2.87h-6.916v11.38h5.27v-8.544h3.26v17.121L72.04 35h-9.354l2.8-2.837h6.126V23.95l-3.261 2.507h-2.404l-2.866-2.87v-11.38l2.866-2.87H76.09Zm15.13 14.25-2.832 2.87h-6.093l-2.833-2.87v-11.38l2.833-2.87h6.093l2.832 2.87v11.38Zm-3.228 0v-11.38h-5.27v11.38h5.27Zm22.223-4.453-5.369 7.323h-3.656l-5.203-7.323V3.662h3.326v14.877l3.36 5.146h.856l3.425-5.146V3.662h3.261v15.47Zm8.377-12.601h-3.261V3.266h3.261v3.266Zm0 19.924h-3.261V11.843l3.261-3.3v17.913Zm14.408 0h-10.177v-5.41l7.345-7.39v-1.45h-7.345v-2.87H133v5.607l-7.213 7.225v1.418H133v2.87Z"/>
</svg>
